<mxfile host="app.diagrams.net" agent="Mozilla/5.0 (Windows NT 10.0; Win64; x64) AppleWebKit/537.36 (KHTML, like Gecko) Chrome/138.0.0.0 YaBrowser/25.8.0.0 Safari/537.36" version="28.2.5">
  <diagram name="Страница — 1" id="_X9zHaIZ27W-kjNJBDN4">
    <mxGraphModel dx="1104" dy="693" grid="1" gridSize="10" guides="1" tooltips="1" connect="1" arrows="1" fold="1" page="1" pageScale="1" pageWidth="1200" pageHeight="1920" math="0" shadow="0">
      <root>
        <mxCell id="0" />
        <mxCell id="1" parent="0" />
        <mxCell id="aJWFzaeNASK-p7sXu5QO-6" value="" style="shape=loopLimit;whiteSpace=wrap;html=1;" vertex="1" parent="1">
          <mxGeometry x="230" y="340" width="500" height="340" as="geometry" />
        </mxCell>
        <mxCell id="aJWFzaeNASK-p7sXu5QO-1" value="SeqD" style="shape=umlFrame;whiteSpace=wrap;html=1;pointerEvents=0;" vertex="1" parent="1">
          <mxGeometry x="140" y="90" width="660" height="650" as="geometry" />
        </mxCell>
        <mxCell id="aJWFzaeNASK-p7sXu5QO-11" style="edgeStyle=none;curved=1;rounded=0;orthogonalLoop=1;jettySize=auto;html=1;fontSize=12;startSize=8;endSize=8;endArrow=none;endFill=0;dashed=1;" edge="1" parent="1" source="aJWFzaeNASK-p7sXu5QO-2">
          <mxGeometry relative="1" as="geometry">
            <mxPoint x="299.9999999999998" y="709.9999999999998" as="targetPoint" />
          </mxGeometry>
        </mxCell>
        <mxCell id="aJWFzaeNASK-p7sXu5QO-2" value="Ученик" style="rounded=0;whiteSpace=wrap;html=1;" vertex="1" parent="1">
          <mxGeometry x="240" y="150" width="120" height="60" as="geometry" />
        </mxCell>
        <mxCell id="aJWFzaeNASK-p7sXu5QO-12" style="edgeStyle=none;curved=1;rounded=0;orthogonalLoop=1;jettySize=auto;html=1;fontSize=12;startSize=8;endSize=8;endArrow=none;endFill=0;dashed=1;" edge="1" parent="1">
          <mxGeometry relative="1" as="geometry">
            <mxPoint x="469.57999999999976" y="660" as="sourcePoint" />
            <mxPoint x="469.57999999999976" y="709.9999999999998" as="targetPoint" />
          </mxGeometry>
        </mxCell>
        <mxCell id="aJWFzaeNASK-p7sXu5QO-3" value="Хореограф" style="rounded=0;whiteSpace=wrap;html=1;" vertex="1" parent="1">
          <mxGeometry x="410" y="150" width="120" height="60" as="geometry" />
        </mxCell>
        <mxCell id="aJWFzaeNASK-p7sXu5QO-13" style="edgeStyle=none;curved=1;rounded=0;orthogonalLoop=1;jettySize=auto;html=1;fontSize=12;startSize=8;endSize=8;endArrow=none;endFill=0;dashed=1;" edge="1" parent="1" source="aJWFzaeNASK-p7sXu5QO-4">
          <mxGeometry relative="1" as="geometry">
            <mxPoint x="650" y="709.9999999999998" as="targetPoint" />
          </mxGeometry>
        </mxCell>
        <mxCell id="aJWFzaeNASK-p7sXu5QO-4" value="Плательщик" style="rounded=0;whiteSpace=wrap;html=1;" vertex="1" parent="1">
          <mxGeometry x="590" y="150" width="120" height="60" as="geometry" />
        </mxCell>
        <mxCell id="aJWFzaeNASK-p7sXu5QO-15" value="" style="endArrow=classic;html=1;rounded=0;fontSize=12;startSize=8;endSize=8;curved=1;" edge="1" parent="1">
          <mxGeometry width="50" height="50" relative="1" as="geometry">
            <mxPoint x="300" y="260" as="sourcePoint" />
            <mxPoint x="470" y="260" as="targetPoint" />
          </mxGeometry>
        </mxCell>
        <mxCell id="aJWFzaeNASK-p7sXu5QO-19" value="Записаться на занятие" style="edgeLabel;html=1;align=center;verticalAlign=middle;resizable=0;points=[];fontSize=12;" vertex="1" connectable="0" parent="aJWFzaeNASK-p7sXu5QO-15">
          <mxGeometry x="-0.0279" y="3" relative="1" as="geometry">
            <mxPoint x="1" y="-7" as="offset" />
          </mxGeometry>
        </mxCell>
        <mxCell id="aJWFzaeNASK-p7sXu5QO-17" value="" style="endArrow=classic;html=1;rounded=0;fontSize=12;startSize=8;endSize=8;curved=1;" edge="1" parent="1">
          <mxGeometry width="50" height="50" relative="1" as="geometry">
            <mxPoint x="470" y="490" as="sourcePoint" />
            <mxPoint x="300" y="490" as="targetPoint" />
          </mxGeometry>
        </mxCell>
        <mxCell id="aJWFzaeNASK-p7sXu5QO-31" value="Провести занятие" style="edgeLabel;html=1;align=center;verticalAlign=middle;resizable=0;points=[];fontSize=12;" vertex="1" connectable="0" parent="aJWFzaeNASK-p7sXu5QO-17">
          <mxGeometry x="0.2879" relative="1" as="geometry">
            <mxPoint x="19" y="-10" as="offset" />
          </mxGeometry>
        </mxCell>
        <mxCell id="aJWFzaeNASK-p7sXu5QO-18" value="" style="endArrow=classic;html=1;rounded=0;fontSize=12;startSize=8;endSize=8;curved=1;" edge="1" parent="1" target="aJWFzaeNASK-p7sXu5QO-28">
          <mxGeometry width="50" height="50" relative="1" as="geometry">
            <mxPoint x="650" y="600" as="sourcePoint" />
            <mxPoint x="480" y="600" as="targetPoint" />
          </mxGeometry>
        </mxCell>
        <mxCell id="aJWFzaeNASK-p7sXu5QO-32" value="Оплатить занятие" style="edgeLabel;html=1;align=center;verticalAlign=middle;resizable=0;points=[];fontSize=12;" vertex="1" connectable="0" parent="aJWFzaeNASK-p7sXu5QO-18">
          <mxGeometry x="0.1517" y="3" relative="1" as="geometry">
            <mxPoint x="8" y="-13" as="offset" />
          </mxGeometry>
        </mxCell>
        <mxCell id="aJWFzaeNASK-p7sXu5QO-20" value="" style="endArrow=classic;html=1;rounded=0;fontSize=12;startSize=8;endSize=8;curved=1;dashed=1;" edge="1" parent="1">
          <mxGeometry width="50" height="50" relative="1" as="geometry">
            <mxPoint x="470" y="320" as="sourcePoint" />
            <mxPoint x="300" y="320" as="targetPoint" />
          </mxGeometry>
        </mxCell>
        <mxCell id="aJWFzaeNASK-p7sXu5QO-21" value="Подтверждение записи" style="edgeLabel;html=1;align=center;verticalAlign=middle;resizable=0;points=[];fontSize=12;" vertex="1" connectable="0" parent="aJWFzaeNASK-p7sXu5QO-20">
          <mxGeometry x="0.065" y="-1" relative="1" as="geometry">
            <mxPoint x="11" y="-9" as="offset" />
          </mxGeometry>
        </mxCell>
        <mxCell id="aJWFzaeNASK-p7sXu5QO-23" value="" style="edgeStyle=none;curved=1;rounded=0;orthogonalLoop=1;jettySize=auto;html=1;fontSize=12;startSize=8;endSize=8;endArrow=none;endFill=0;dashed=1;" edge="1" parent="1" source="aJWFzaeNASK-p7sXu5QO-3" target="aJWFzaeNASK-p7sXu5QO-22">
          <mxGeometry relative="1" as="geometry">
            <mxPoint x="470" y="210" as="sourcePoint" />
            <mxPoint x="475" y="710" as="targetPoint" />
          </mxGeometry>
        </mxCell>
        <mxCell id="aJWFzaeNASK-p7sXu5QO-22" value="" style="html=1;points=[[0,0,0,0,5],[0,1,0,0,-5],[1,0,0,0,5],[1,1,0,0,-5]];perimeter=orthogonalPerimeter;outlineConnect=0;targetShapes=umlLifeline;portConstraint=eastwest;newEdgeStyle={&quot;curved&quot;:0,&quot;rounded&quot;:0};" vertex="1" parent="1">
          <mxGeometry x="465" y="260" width="10" height="60" as="geometry" />
        </mxCell>
        <mxCell id="aJWFzaeNASK-p7sXu5QO-25" value="" style="edgeStyle=none;curved=1;rounded=0;orthogonalLoop=1;jettySize=auto;html=1;fontSize=12;startSize=8;endSize=8;startArrow=none;startFill=0;endArrow=none;endFill=0;dashed=1;" edge="1" parent="1" source="aJWFzaeNASK-p7sXu5QO-22" target="aJWFzaeNASK-p7sXu5QO-24">
          <mxGeometry relative="1" as="geometry">
            <mxPoint x="475" y="320" as="sourcePoint" />
            <mxPoint x="475" y="710" as="targetPoint" />
          </mxGeometry>
        </mxCell>
        <mxCell id="aJWFzaeNASK-p7sXu5QO-24" value="Подготовить занятие" style="html=1;points=[[0,0,0,0,5],[0,1,0,0,-5],[1,0,0,0,5],[1,1,0,0,-5]];perimeter=orthogonalPerimeter;outlineConnect=0;targetShapes=umlLifeline;portConstraint=eastwest;newEdgeStyle={&quot;curved&quot;:0,&quot;rounded&quot;:0};" vertex="1" parent="1">
          <mxGeometry x="465" y="360" width="10" height="80" as="geometry" />
        </mxCell>
        <mxCell id="aJWFzaeNASK-p7sXu5QO-27" value="" style="edgeStyle=none;curved=1;rounded=0;orthogonalLoop=1;jettySize=auto;html=1;fontSize=12;startSize=8;endSize=8;" edge="1" parent="1" source="aJWFzaeNASK-p7sXu5QO-24" target="aJWFzaeNASK-p7sXu5QO-26">
          <mxGeometry relative="1" as="geometry">
            <mxPoint x="475" y="440" as="sourcePoint" />
            <mxPoint x="475" y="710" as="targetPoint" />
          </mxGeometry>
        </mxCell>
        <mxCell id="aJWFzaeNASK-p7sXu5QO-26" value="" style="html=1;points=[[0,0,0,0,5],[0,1,0,0,-5],[1,0,0,0,5],[1,1,0,0,-5]];perimeter=orthogonalPerimeter;outlineConnect=0;targetShapes=umlLifeline;portConstraint=eastwest;newEdgeStyle={&quot;curved&quot;:0,&quot;rounded&quot;:0};" vertex="1" parent="1">
          <mxGeometry x="465" y="440" width="10" height="50" as="geometry" />
        </mxCell>
        <mxCell id="aJWFzaeNASK-p7sXu5QO-29" value="" style="edgeStyle=none;curved=1;rounded=0;orthogonalLoop=1;jettySize=auto;html=1;fontSize=12;startSize=8;endSize=8;endArrow=none;endFill=0;dashed=1;" edge="1" parent="1" source="aJWFzaeNASK-p7sXu5QO-26" target="aJWFzaeNASK-p7sXu5QO-28">
          <mxGeometry relative="1" as="geometry">
            <mxPoint x="475" y="490" as="sourcePoint" />
            <mxPoint x="475" y="710" as="targetPoint" />
          </mxGeometry>
        </mxCell>
        <mxCell id="aJWFzaeNASK-p7sXu5QO-28" value="Заполнить ведомость" style="html=1;points=[[0,0,0,0,5],[0,1,0,0,-5],[1,0,0,0,5],[1,1,0,0,-5]];perimeter=orthogonalPerimeter;outlineConnect=0;targetShapes=umlLifeline;portConstraint=eastwest;newEdgeStyle={&quot;curved&quot;:0,&quot;rounded&quot;:0};" vertex="1" parent="1">
          <mxGeometry x="465" y="600" width="10" height="60" as="geometry" />
        </mxCell>
        <mxCell id="aJWFzaeNASK-p7sXu5QO-30" value="" style="html=1;points=[[0,0,0,0,5],[0,1,0,0,-5],[1,0,0,0,5],[1,1,0,0,-5]];perimeter=orthogonalPerimeter;outlineConnect=0;targetShapes=umlLifeline;portConstraint=eastwest;newEdgeStyle={&quot;curved&quot;:0,&quot;rounded&quot;:0};" vertex="1" parent="1">
          <mxGeometry x="645" y="540" width="10" height="60" as="geometry" />
        </mxCell>
        <mxCell id="aJWFzaeNASK-p7sXu5QO-34" style="edgeStyle=none;curved=0;rounded=0;orthogonalLoop=1;jettySize=auto;html=1;fontSize=12;startSize=8;endSize=8;" edge="1" parent="1" source="aJWFzaeNASK-p7sXu5QO-28" target="aJWFzaeNASK-p7sXu5QO-28">
          <mxGeometry relative="1" as="geometry" />
        </mxCell>
        <mxCell id="aJWFzaeNASK-p7sXu5QO-35" style="edgeStyle=none;curved=0;rounded=0;orthogonalLoop=1;jettySize=auto;html=1;fontSize=12;startSize=8;endSize=8;" edge="1" parent="1" source="aJWFzaeNASK-p7sXu5QO-24" target="aJWFzaeNASK-p7sXu5QO-24">
          <mxGeometry relative="1" as="geometry" />
        </mxCell>
        <mxCell id="aJWFzaeNASK-p7sXu5QO-37" value="SeqLoop" style="rounded=0;whiteSpace=wrap;html=1;" vertex="1" parent="1">
          <mxGeometry x="230" y="360" width="50" height="20" as="geometry" />
        </mxCell>
      </root>
    </mxGraphModel>
  </diagram>
</mxfile>
